<svg xmlns="http://www.w3.org/2000/svg" viewBox="0 0 24 24">
  <defs>
    <linearGradient id="techGrad1" x1="0%" y1="0%" x2="100%" y2="100%">
      <stop offset="0%" style="stop-color:#6d28d9;stop-opacity:1" />
      <stop offset="100%" style="stop-color:#1e40af;stop-opacity:1" />
    </linearGradient>
  </defs>
  
  <path d="M4 22h16a2 2 0 0 0 2-2V4a2 2 0 0 0-2-2H8a2 2 0 0 0-2 2v16a2 2 0 0 1-2 2Zm0 0a2 2 0 0 1-2-2v-9c0-1.1.9-2 2-2h2" 
        stroke="url(#techGrad1)" 
        fill="none" 
        stroke-width="2" 
        stroke-linecap="round" 
        stroke-linejoin="round"/>
  <path d="M8 14h8" 
        stroke="url(#techGrad1)" 
        stroke-width="2" 
        stroke-linecap="round"/>
  <path d="M9 18h6" 
        stroke="url(#techGrad1)" 
        stroke-width="2" 
        stroke-linecap="round"/>
  <path d="M10 6h8v4h-8V6Z" 
        stroke="url(#techGrad1)" 
        fill="none" 
        stroke-width="2" 
        stroke-linecap="round" 
        stroke-linejoin="round"/>
</svg>